<?xml version="1.0" encoding="utf-8"?>
<!-- Generator: Adobe Illustrator 24.0.0, SVG Export Plug-In . SVG Version: 6.00 Build 0)  -->
<svg version="1.1" xmlns="http://www.w3.org/2000/svg" xmlns:xlink="http://www.w3.org/1999/xlink" x="0px" y="0px"
	 viewBox="0 0 256 256" enable-background="new 0 0 256 256" xml:space="preserve">
<g id="Layer_1">
</g>
<g id="Layer_2">
</g>
<g id="Layer_3">
</g>
<g id="Layer_4">
</g>
<g id="Layer_5">
</g>
<g id="Layer_6">
</g>
<g id="Layer_7">
</g>
<g id="Layer_8">
</g>
<g id="Layer_9">
</g>
<g id="Layer_10">
</g>
<g id="Layer_11">
</g>
<g id="Layer_12">
</g>
<g id="Layer_13">
</g>
<g id="Layer_14">
</g>
<g id="Layer_15">
</g>
<g id="Layer_16">
</g>
<g id="Layer_17">
</g>
<g id="Layer_18">
</g>
<g id="Layer_19">
</g>
<g id="Layer_20">
</g>
<g id="Layer_21">
</g>
<g id="Layer_22">
</g>
<g id="Layer_23">
</g>
<g id="Layer_24">
</g>
<g id="Layer_25">
</g>
<g id="Layer_26">
</g>
<g id="Layer_27">
</g>
<g id="Layer_28">
</g>
<g id="Layer_29">
</g>
<g id="Layer_30">
</g>
<g id="Layer_31">
</g>
<g id="Layer_32">
	<g>
		<g>
			<g>
				<path fill="#FC657E" d="M146.592,2.501h-37.184c-5.48,0-9.964,4.484-9.964,9.964v35.113c0.146-0.003,0.291-0.011,0.437-0.011
					h56.238c0.147,0,0.291,0.008,0.437,0.011V12.465C156.556,6.985,152.073,2.501,146.592,2.501z"/>
			</g>
		</g>
		<g>
			<g>
				<path fill="#FC657E" d="M156.119,208.433H99.881c-0.147,0-0.291-0.008-0.437-0.011v35.113c0,5.48,4.484,9.964,9.964,9.964
					h37.184c5.48,0,9.964-4.484,9.964-9.964v-35.113C156.41,208.425,156.266,208.433,156.119,208.433z"/>
			</g>
		</g>
		<g>
			<g>
				<path fill="#70D6F9" d="M194.2,36.9h-2.3v-2.3c0-1.7-1.4-3.2-3.2-3.2s-3.2,1.4-3.2,3.2v2.3h-2.3c-1.7,0-3.2,1.4-3.2,3.2
					s1.4,3.2,3.2,3.2h2.3v2.3c0,1.7,1.4,3.2,3.2,3.2s3.2-1.4,3.2-3.2v-2.3h2.3c1.7,0,3.2-1.4,3.2-3.2S196,36.9,194.2,36.9z"/>
			</g>
		</g>
		<g>
			<g>
				<path fill="#F5C84C" d="M78.8,218.85c-4.5-0.8-8-4.3-8.9-8.7c0-0.2-0.4-0.2-0.4,0c-0.9,4.4-4.4,7.9-8.9,8.7
					c-0.2,0-0.2,0.3,0,0.4c4.5,0.8,8,4.3,8.9,8.7c0,0.2,0.4,0.2,0.4,0c0.9-4.4,4.4-7.9,8.9-8.7C79,219.15,79,218.85,78.8,218.85z"/>
			</g>
		</g>
		<g>
			<g>
				<path fill="#FC657E" d="M203.853,143.921c-2.907-0.517-5.168-2.777-5.749-5.62c0-0.129-0.258-0.129-0.258,0
					c-0.581,2.842-2.842,5.103-5.749,5.62c-0.129,0-0.129,0.194,0,0.258c2.907,0.517,5.168,2.778,5.749,5.62
					c0,0.129,0.258,0.129,0.258,0c0.581-2.842,2.842-5.103,5.749-5.62C203.982,144.115,203.982,143.921,203.853,143.921z"/>
			</g>
		</g>
		<g>
			<g>
				<path fill="#F5C84C" d="M176.8,12.5c-1.878,0-3.4,1.522-3.4,3.4c0,1.878,1.522,3.4,3.4,3.4c1.878,0,3.4-1.522,3.4-3.4
					C180.2,14.022,178.678,12.5,176.8,12.5z"/>
			</g>
		</g>
		<g>
			<g>
				<path fill="#FC657E" d="M63.8,169.5c-1.878,0-3.4,1.522-3.4,3.4c0,1.878,1.522,3.4,3.4,3.4c1.878,0,3.4-1.522,3.4-3.4
					C67.2,171.022,65.678,169.5,63.8,169.5z"/>
			</g>
		</g>
		<g>
			<g>
				<path fill="#87D147" d="M83.8,236.5c-1.878,0-3.4,1.522-3.4,3.4c0,1.878,1.522,3.4,3.4,3.4c1.878,0,3.4-1.522,3.4-3.4
					C87.2,238.022,85.678,236.5,83.8,236.5z"/>
			</g>
		</g>
		<g>
			<g>
				<path fill="#3A70BF" d="M156.119,47.567H99.881c-12.629,0-22.904,10.274-22.904,22.904v115.059
					c0,12.629,10.274,22.904,22.904,22.904h56.238c12.629,0,22.904-10.274,22.904-22.904V70.471
					C179.023,57.841,168.749,47.567,156.119,47.567z"/>
			</g>
		</g>
		<g>
			<g>
				<path fill="#F5C84C" d="M156.119,57.567H99.881c-7.097,0-12.904,5.807-12.904,12.904v115.059
					c0,7.097,5.807,12.904,12.904,12.904h56.239c7.097,0,12.904-5.807,12.904-12.904V70.471
					C169.023,63.374,163.216,57.567,156.119,57.567z"/>
			</g>
		</g>
		<g>
			<g>
				<g>
					<g>
						<path d="M156.119,55.067H99.881c-8.494,0-15.404,6.91-15.404,15.404v115.059c0,8.494,6.91,15.404,15.404,15.404h56.238
							c8.494,0,15.404-6.91,15.404-15.404V70.471C171.523,61.977,164.613,55.067,156.119,55.067z M166.523,185.529
							c0,5.737-4.667,10.404-10.404,10.404H99.881c-5.737,0-10.404-4.667-10.404-10.404V70.471c0-5.737,4.667-10.404,10.404-10.404
							h56.238c5.737,0,10.404,4.667,10.404,10.404V185.529z"/>
					</g>
				</g>
			</g>
		</g>
		<g>
			<g>
				<g>
					<g>
						<path d="M156.119,45.067H99.881c-14.008,0-25.404,11.396-25.404,25.404v115.059c0,14.008,11.396,25.404,25.404,25.404h56.238
							c14.008,0,25.404-11.396,25.404-25.404V70.471C181.523,56.463,170.127,45.067,156.119,45.067z M176.523,185.529
							c0,11.25-9.153,20.404-20.404,20.404H99.881c-11.25,0-20.404-9.153-20.404-20.404V70.471c0-11.25,9.153-20.404,20.404-20.404
							h56.238c11.25,0,20.404,9.153,20.404,20.404V185.529z"/>
					</g>
				</g>
			</g>
		</g>
		<g>
			<g>
				<path d="M146.592,0.001h-37.185c-6.873,0-12.464,5.591-12.464,12.464v34.44c0,1.381,1.119,2.5,2.5,2.5
					c1.381,0,2.5-1.119,2.5-2.5v-34.44c0-4.116,3.349-7.464,7.464-7.464h37.185c4.116,0,7.464,3.348,7.464,7.464v34.503
					c0,1.381,1.119,2.5,2.5,2.5c1.381,0,2.5-1.119,2.5-2.5V12.465C159.057,5.593,153.465,0.001,146.592,0.001z"/>
			</g>
		</g>
		<g>
			<g>
				<path d="M156.557,206.792c-1.381,0-2.5,1.119-2.5,2.5v34.243c0,4.116-3.349,7.464-7.464,7.464h-37.185
					c-4.116,0-7.464-3.349-7.464-7.464V209.25c0-1.381-1.119-2.5-2.5-2.5c-1.381,0-2.5,1.119-2.5,2.5v34.285
					c0,6.873,5.591,12.464,12.464,12.464h37.185c6.873,0,12.464-5.591,12.464-12.464v-34.243
					C159.057,207.911,157.937,206.792,156.557,206.792z"/>
			</g>
		</g>
		<g>
			<g>
				
					<ellipse transform="matrix(0.9871 -0.1602 0.1602 0.9871 -13.6973 23.612)" fill="#EDF4FC" cx="139.607" cy="96.765" rx="6.57" ry="6.57"/>
			</g>
		</g>
		<g>
			<g>
				<path fill="#EDF4FC" d="M135.184,128.427l-9.143-5.143l9.75-10.379c1.996-2.123,1.286-5.574-1.131-6.864l-13.14-7.008
					c-1.592-0.849-3.541-0.635-4.912,0.539l-12.264,10.512c-1.837,1.575-2.049,4.34-0.475,6.176
					c1.572,1.834,4.337,2.052,6.176,0.475l9.993-8.565l5.451,2.907l-9.66,10.284c-1.948,2.073-1.43,5.425,1.045,6.817l9.172,5.159
					l-7.606,8.191c-1.646,1.772-1.543,4.544,0.229,6.19c1.773,1.646,4.544,1.543,6.19-0.229l11.388-12.264
					C138.171,133.152,137.656,129.817,135.184,128.427z"/>
			</g>
		</g>
		<g>
			<g>
				<path fill="#EDF4FC" d="M116.873,128.177c-2.475-1.392-2.993-4.743-1.045-6.817l0.08-0.085l-20.943,20.07
					c-1.746,1.674-1.806,4.447-0.132,6.193c1.67,1.743,4.443,1.809,6.193,0.132l18.679-17.9L116.873,128.177z"/>
			</g>
		</g>
		<g>
			<g>
				<path fill="#EDF4FC" d="M161.605,106.536c-1.377-1.989-4.105-2.485-6.095-1.108l-9.256,6.408l-11.645-5.823l0.051,0.027
					c2.417,1.289,3.127,4.741,1.131,6.864l-2.233,2.378l11.099,5.549c1.427,0.714,3.134,0.595,4.452-0.317l11.388-7.884
					C162.486,111.254,162.982,108.525,161.605,106.536z"/>
			</g>
		</g>
		<g>
			<g>
				<g>
					<g>
						<path d="M139.607,87.695c-5.001,0-9.07,4.069-9.07,9.07s4.069,9.07,9.07,9.07c5.001,0,9.07-4.069,9.07-9.07
							S144.608,87.695,139.607,87.695z M139.607,100.835c-2.244,0-4.07-1.826-4.07-4.07s1.826-4.07,4.07-4.07s4.07,1.826,4.07,4.07
							S141.851,100.835,139.607,100.835z"/>
					</g>
				</g>
			</g>
		</g>
		<g>
			<g>
				<g>
					<g>
						<path d="M139.833,131.18c-0.328-2.095-1.576-3.893-3.424-4.933l-6.361-3.578l7.564-8.052c1.46-1.553,2.097-3.667,1.746-5.801
							c-0.35-2.129-1.667-3.992-3.521-4.981l-13.14-7.008c-2.518-1.343-5.546-1.012-7.715,0.847l-12.264,10.512
							c-2.88,2.468-3.215,6.82-0.747,9.702c2.469,2.879,6.822,3.214,9.701,0.746l8.696-7.454l1.063,0.567l-7.424,7.903
							c-1.457,1.551-2.108,3.648-1.785,5.753c0.323,2.105,1.572,3.912,3.427,4.955l6.407,3.603l-5.447,5.867
							c-2.581,2.78-2.42,7.142,0.36,9.724c1.322,1.228,3.002,1.835,4.679,1.835c1.848,0,3.691-0.738,5.045-2.195l11.388-12.265
							C139.522,135.371,140.161,133.277,139.833,131.18z M134.415,133.523l-11.388,12.264c-0.706,0.759-1.897,0.804-2.658,0.099
							c-0.76-0.705-0.804-1.897-0.098-2.657l7.606-8.191c0.521-0.562,0.756-1.331,0.638-2.087c-0.119-0.756-0.577-1.417-1.245-1.793
							l-9.172-5.159c-0.506-0.285-0.848-0.778-0.936-1.354c-0.052-0.338-0.058-0.992,0.487-1.572l9.661-10.284
							c0.533-0.567,0.771-1.351,0.645-2.119c-0.126-0.768-0.604-1.433-1.291-1.799l-5.452-2.907
							c-0.37-0.197-0.774-0.294-1.176-0.294c-0.584,0-1.164,0.205-1.627,0.602l-9.993,8.565c-0.788,0.674-1.977,0.582-2.651-0.204
							c-0.675-0.788-0.583-1.977,0.204-2.652l12.263-10.512c0.594-0.508,1.422-0.598,2.11-0.231l13.14,7.007
							c0.49,0.262,0.841,0.778,0.941,1.381c0.056,0.344,0.073,1.004-0.456,1.566l-9.75,10.379c-0.526,0.56-0.765,1.331-0.649,2.09
							c0.117,0.76,0.576,1.423,1.246,1.8l9.143,5.143c0.691,0.388,0.882,1.011,0.935,1.347
							C134.983,132.526,134.809,133.099,134.415,133.523z"/>
					</g>
				</g>
			</g>
		</g>
		<g>
			<g>
				<path d="M120.885,128.64c-0.956-0.997-2.537-1.03-3.535-0.075l-18.054,17.302c-0.363,0.348-0.834,0.53-1.341,0.522
					c-0.502-0.011-0.97-0.217-1.316-0.579c-0.348-0.362-0.533-0.838-0.522-1.34c0.011-0.502,0.216-0.97,0.579-1.317l20.771-19.906
					c0.997-0.956,1.03-2.538,0.075-3.535c-0.955-0.996-2.537-1.03-3.535-0.075l-20.771,19.906c-1.327,1.272-2.079,2.984-2.118,4.821
					c-0.039,1.837,0.64,3.58,1.911,4.906c1.27,1.326,2.98,2.078,4.816,2.119c0.052,0.001,0.104,0.001,0.156,0.001
					c1.781,0,3.465-0.676,4.755-1.913l18.054-17.301C121.807,131.219,121.84,129.637,120.885,128.64z"/>
			</g>
		</g>
		<g>
			<g>
				<path d="M163.661,105.114c-1.046-1.512-2.618-2.525-4.426-2.854c-1.807-0.329-3.636,0.066-5.147,1.112l-8.039,5.566
					l-10.129-5.065c-1.235-0.618-2.737-0.118-3.354,1.118c-0.618,1.235-0.117,2.737,1.118,3.354l11.453,5.727
					c0.816,0.409,1.791,0.34,2.541-0.18l9.256-6.408c0.413-0.285,0.913-0.393,1.407-0.304c0.494,0.09,0.923,0.366,1.209,0.78
					c0.286,0.413,0.394,0.912,0.304,1.406s-0.367,0.924-0.779,1.209l-11.388,7.884c-0.566,0.391-1.299,0.443-1.911,0.137
					l-10.413-5.207c-1.235-0.618-2.737-0.117-3.354,1.118c-0.618,1.235-0.117,2.737,1.118,3.354l10.413,5.207
					c0.972,0.486,2.026,0.727,3.076,0.727c1.375,0,2.745-0.413,3.917-1.224l11.388-7.884c1.511-1.046,2.524-2.618,2.853-4.427
					C165.102,108.452,164.707,106.624,163.661,105.114z"/>
			</g>
		</g>
		<g>
			<g>
				<path d="M133,68.5h-10c-1.381,0-2.5,1.119-2.5,2.5s1.119,2.5,2.5,2.5h10c1.381,0,2.5-1.119,2.5-2.5S134.381,68.5,133,68.5z"/>
			</g>
		</g>
		<g>
			<g>
				<path d="M149.577,179h-16.598c-1.381,0-2.5,1.119-2.5,2.5s1.119,2.5,2.5,2.5h16.598c1.381,0,2.5-1.119,2.5-2.5
					S150.958,179,149.577,179z"/>
			</g>
		</g>
		<g>
			<g>
				<path d="M149.577,170h-43.154c-1.381,0-2.5,1.119-2.5,2.5s1.119,2.5,2.5,2.5h43.154c1.381,0,2.5-1.119,2.5-2.5
					S150.958,170,149.577,170z"/>
			</g>
		</g>
		<g>
			<g>
				<path d="M149.577,161h-43.154c-1.381,0-2.5,1.119-2.5,2.5s1.119,2.5,2.5,2.5h43.154c1.381,0,2.5-1.119,2.5-2.5
					S150.958,161,149.577,161z"/>
			</g>
		</g>
	</g>
</g>
<g id="Layer_33">
</g>
<g id="Layer_34">
</g>
<g id="Layer_35">
</g>
<g id="Layer_36">
</g>
<g id="Layer_37">
</g>
<g id="Layer_38">
</g>
<g id="Layer_39">
</g>
<g id="Layer_40">
</g>
<g id="Layer_41">
</g>
<g id="Layer_42">
</g>
<g id="Layer_43">
</g>
<g id="Layer_44">
</g>
<g id="Layer_45">
</g>
<g id="Layer_46">
</g>
<g id="Layer_47">
</g>
<g id="Layer_48">
</g>
<g id="Layer_49">
</g>
<g id="Layer_50">
</g>
<g id="Layer_51">
</g>
<g id="Layer_52">
</g>
<g id="Layer_53">
</g>
<g id="Layer_54">
</g>
<g id="Layer_55">
</g>
<g id="Layer_56">
</g>
<g id="Layer_57">
</g>
<g id="Layer_58">
</g>
<g id="Layer_59">
</g>
<g id="Layer_60">
</g>
<g id="Layer_61">
</g>
<g id="Layer_62">
</g>
<g id="Layer_63">
</g>
<g id="Layer_64">
</g>
<g id="Layer_65">
</g>
<g id="Layer_66">
</g>
<g id="Layer_67">
</g>
<g id="Layer_68">
</g>
<g id="Layer_69">
</g>
<g id="Layer_70">
</g>
<g id="Layer_71">
</g>
<g id="Layer_72">
</g>
<g id="Layer_73">
</g>
<g id="Layer_74">
</g>
<g id="Layer_75">
</g>
</svg>
